# xmcd
#
# Track frame offsets:
# 150
# 14430
# 28777
# 42250
# 55862
# 67817
# 80457
# 94280
# 108295
# 121477
# 135042
# 149702
#
# Disc length: 2147 seconds
#
#
# Revision: 2
# Processed by: cddbd v1.5.1PL2 Copyright (c) Steve Scherf et al.
# Submitted via: FreeRIP 2.942 
#
DISCID=9e08610c
DTITLE=Louis Armstrong - Just Louis
DYEAR=1990
DGENRE=Jazz
TTITLE0=Once in a While
TTITLE1=Nobody Knows De Trouble I've Seen
TTITLE2=On the Sunny Side of the Street
TTITLE3=Solitude
TTITLE4=Thanks a Million
TTITLE5=Jonah and the Whale
TTITLE6=Red Sails in the Sunset
TTITLE7=On Treasure Island
TTITLE8=Mahogany Hall Stomp
TTITLE9=I Come From a Musical Family
TTITLE10=I Hope Gabriel Likes My Music
TTITLE11=Shadrack
EXTD=
EXTT0=
EXTT1=
EXTT2=
EXTT3=
EXTT4=
EXTT5=
EXTT6=
EXTT7=
EXTT8=
EXTT9=
EXTT10=
EXTT11=
PLAYORDER=
